<svg xmlns="http://www.w3.org/2000/svg" width="27.637" height="27.637" viewBox="0 0 27.637 27.637"><defs><style>.a{fill:#f6f7f9;}</style></defs><path class="a" d="M-214.115-74.382a2.766,2.766,0,0,0-2.722,2.3h-1.623a3.362,3.362,0,0,0-3.154-2.284c-.057,0-.113.008-.169.011l2.835-2.835a2.734,2.734,0,0,0,3.666-.488,2.734,2.734,0,0,0-.176-3.695,2.734,2.734,0,0,0-3.7-.137,2.734,2.734,0,0,0-.449,3.671l-2.822,2.823a3.785,3.785,0,0,0-2.282-1.571v-3.365a2.763,2.763,0,0,0,2.293-2.956,2.763,2.763,0,0,0-2.753-2.532,2.763,2.763,0,0,0-2.753,2.532,2.763,2.763,0,0,0,2.293,2.956v3.27A3.711,3.711,0,0,0-228.3-75.4l-2.437-2.437a2.812,2.812,0,0,0-.446-3.784,2.812,2.812,0,0,0-3.807.134,2.812,2.812,0,0,0-.18,3.806,2.812,2.812,0,0,0,3.778.492l2.566,2.566a3.89,3.89,0,0,0-.373,1.085,2.939,2.939,0,0,0-2.447,1.458H-233.5a2.763,2.763,0,0,0-2.956-2.293,2.763,2.763,0,0,0-2.532,2.753,2.763,2.763,0,0,0,2.532,2.753,2.763,2.763,0,0,0,2.956-2.293H-232a3.109,3.109,0,0,0-.071.653,3.021,3.021,0,0,0,2.211,2.931l-1.524,1.524a2.734,2.734,0,0,0-3.665.494,2.734,2.734,0,0,0,.182,3.694,2.734,2.734,0,0,0,3.7.132,2.734,2.734,0,0,0,.445-3.672l2.072-2.072h3.032v4.186a2.763,2.763,0,0,0-2.293,2.956,2.763,2.763,0,0,0,2.753,2.532,2.763,2.763,0,0,0,2.753-2.532,2.763,2.763,0,0,0-2.293-2.956v-4.186h3.033L-219.6-65.4a2.78,2.78,0,0,0,.446,3.738,2.78,2.78,0,0,0,3.762-.134,2.78,2.78,0,0,0,.179-3.76,2.78,2.78,0,0,0-3.732-.491l-1.6-1.6a3.441,3.441,0,0,0,2.291-3.265c0-.081-.006-.16-.012-.24h1.435a2.763,2.763,0,0,0,3.033,2.285,2.763,2.763,0,0,0,2.45-2.9,2.763,2.763,0,0,0-2.761-2.607Zm-20.171-3.75a1.842,1.842,0,0,1,0-2.605,1.842,1.842,0,0,1,2.605,0,1.842,1.842,0,0,1,0,2.605,1.83,1.83,0,0,1-1.3.544A1.83,1.83,0,0,1-234.286-78.131Zm-1.934,8.355a1.842,1.842,0,0,1-1.842-1.842,1.842,1.842,0,0,1,1.842-1.842,1.842,1.842,0,0,1,1.842,1.842A1.842,1.842,0,0,1-236.22-69.776Zm12.895,9.21a1.842,1.842,0,0,1-1.842,1.842,1.842,1.842,0,0,1-1.842-1.842,1.842,1.842,0,0,1,1.842-1.842A1.842,1.842,0,0,1-223.325-60.566Zm4.671-20.171a1.842,1.842,0,0,1,2.326-.23,1.842,1.842,0,0,1,.679,2.237,1.842,1.842,0,0,1-2.061,1.1,1.842,1.842,0,0,1-1.483-1.807,1.829,1.829,0,0,1,.539-1.3Zm-8.355-1.934a1.842,1.842,0,0,1,1.842-1.842,1.842,1.842,0,0,1,1.842,1.842,1.842,1.842,0,0,1-1.842,1.842,1.842,1.842,0,0,1-1.842-1.842ZM-231.68-62.5a1.888,1.888,0,0,1-2.605,0,1.842,1.842,0,0,1,0-2.605,1.842,1.842,0,0,1,2.605,0A1.842,1.842,0,0,1-231.68-62.5Zm15.631-2.606a1.842,1.842,0,0,1,.54,1.3,1.842,1.842,0,0,1-.54,1.3,1.885,1.885,0,0,1-2.6,0,1.842,1.842,0,0,1,.014-2.59A1.842,1.842,0,0,1-216.049-65.106Zm-5.564-3.289h-7.507a2.112,2.112,0,0,1-2.036-2.111,2.112,2.112,0,0,1,2.036-2.111,2.011,2.011,0,0,1,.268.019.46.46,0,0,0,.355-.1.46.46,0,0,0,.168-.328,2.818,2.818,0,0,1,2.488-2.713,2.818,2.818,0,0,1,3.05,2.062.461.461,0,0,0,.563.315,2.354,2.354,0,0,1,.615-.082,2.525,2.525,0,0,1,2.435,2.523A2.525,2.525,0,0,1-221.614-68.395Zm7.5-1.382a1.842,1.842,0,0,1-1.842-1.842,1.842,1.842,0,0,1,1.842-1.842,1.842,1.842,0,0,1,1.842,1.842A1.842,1.842,0,0,1-214.115-69.776Z" transform="translate(238.986 85.437)"/></svg>