<svg xmlns="http://www.w3.org/2000/svg" width="28.301" height="28.301" viewBox="0 0 28.301 28.301"><defs><style>.a{fill:#f6f7f9;}</style></defs><g transform="translate(0 0)"><g transform="translate(0 0)"><path class="a" d="M14.15,0H11.792A8.854,8.854,0,0,0,2.948,8.845v.991L.073,15.045A.594.594,0,0,0,0,15.33q0,.05,0,.1A1.719,1.719,0,0,0,1.769,17.1a2.111,2.111,0,0,1,1.179.442v1.917q0,.068,0,.135a2.292,2.292,0,0,0,2.358,2.223H8.945a1.719,1.719,0,0,0,1.668-1.769V16.509H9.434v3.537a.539.539,0,0,1-.59.59H5.306a1.111,1.111,0,0,1-1.179-1.179v-2.2a.59.59,0,0,0-.2-.442,3.406,3.406,0,0,0-2.16-.9H1.761a.518.518,0,0,1-.569-.46l2.862-5.188a.594.594,0,0,0,.073-.285V8.845A7.673,7.673,0,0,1,11.792,1.18h2.351a.542.542,0,0,1,.6.59V4.718h1.179V1.77q0-.05,0-.1A1.719,1.719,0,0,0,14.15,0Z" transform="translate(0 0)"/></g></g><g transform="translate(9.434 17.687)"><path class="a" d="M185.42,320h-6.485v1.179h6.485a.539.539,0,0,1,.59.59v1.114c-.085.352-.653,2.423-2.358,2.423a.59.59,0,0,0-.59.59v3.538h-11.2v-1.769H170.68v2.358a.59.59,0,0,0,.59.59h12.381a.59.59,0,0,0,.59-.59v-3.589c1.843-.348,2.722-2.293,2.936-3.368a.586.586,0,0,0,.012-.118V321.77q0-.05,0-.1A1.719,1.719,0,0,0,185.42,320Z" transform="translate(-170.68 -320)"/></g><g transform="translate(14.74 1.769)"><path class="a" d="M279.651,37.319h-1.486a5.371,5.371,0,0,0-.214-.515L279,35.753a.59.59,0,0,0,0-.834l-1.668-1.668a.59.59,0,0,0-.834,0L275.449,34.3a5.459,5.459,0,0,0-.515-.213V32.6a.59.59,0,0,0-.59-.59h-2.358a.59.59,0,0,0-.59.59V34.09a5.248,5.248,0,0,0-.923.431l.6,1.015a4.127,4.127,0,0,1,1.061-.439.59.59,0,0,0,.442-.571V33.192h1.179v1.334a.59.59,0,0,0,.441.571,4.127,4.127,0,0,1,1.061.439.59.59,0,0,0,.717-.091l.943-.943.834.832-.943.943a.59.59,0,0,0-.091.717,4.128,4.128,0,0,1,.44,1.061.59.59,0,0,0,.57.442h1.334v1.179h-1.332a.59.59,0,0,0-.57.442,4.128,4.128,0,0,1-.44,1.061.59.59,0,0,0,.091.717l.943.943-.834.834-.943-.943a.59.59,0,0,0-.717-.091,4.127,4.127,0,0,1-1.061.439.59.59,0,0,0-.442.571v1.334h-1.179V43.651a.589.589,0,0,0-.442-.571,4.127,4.127,0,0,1-1.061-.439.59.59,0,0,0-.717.091l-.943.943-.834-.834.943-.943a.59.59,0,0,0,.091-.717,4.127,4.127,0,0,1-.44-1.061.59.59,0,0,0-.57-.442H266.68v1.179h1.487a5.365,5.365,0,0,0,.213.515l-1.052,1.052a.59.59,0,0,0,0,.834L269,44.925a.59.59,0,0,0,.834,0l1.052-1.052a5.456,5.456,0,0,0,.515.213v1.487a.59.59,0,0,0,.59.59h2.358a.59.59,0,0,0,.59-.59V44.087a5.475,5.475,0,0,0,.515-.213l1.052,1.051a.59.59,0,0,0,.834,0L279,43.257a.59.59,0,0,0,0-.834l-1.052-1.052a5.362,5.362,0,0,0,.214-.515h1.487a.59.59,0,0,0,.59-.59V37.909A.59.59,0,0,0,279.651,37.319Z" transform="translate(-266.68 -32.013)"/></g><g transform="translate(18.867 6.486)"><path class="a" d="M343.7,117.347a2.358,2.358,0,1,0,2.358,2.358A2.358,2.358,0,0,0,343.7,117.347Zm0,3.537a1.179,1.179,0,1,1,1.179-1.179A1.179,1.179,0,0,1,343.7,120.884Z" transform="translate(-341.346 -117.347)"/></g><g transform="translate(5.896 9.434)"><path class="a" d="M109.624,170.68v.59h-1.769v-.59h-1.179v.59c0,.016,0,.033,0,.049a1.155,1.155,0,0,0,1.179,1.13h1.818a1.155,1.155,0,0,0,1.13-1.179v-.59Z" transform="translate(-106.676 -170.68)"/></g><g transform="translate(14.74 16.509)"><path class="a" d="M268.449,298.68a1.769,1.769,0,1,0,1.769,1.769A1.769,1.769,0,0,0,268.449,298.68Zm0,2.358a.59.59,0,1,1,.59-.59A.59.59,0,0,1,268.449,301.038Z" transform="translate(-266.68 -298.68)"/></g><g transform="translate(8.255 13.561)"><path class="a" d="M151.116,245.347a1.769,1.769,0,1,0,1.769,1.769A1.769,1.769,0,0,0,151.116,245.347Zm0,2.358a.59.59,0,1,1,.59-.59A.59.59,0,0,1,151.116,247.705Z" transform="translate(-149.347 -245.347)"/></g><g transform="translate(13.561 4.128)"><path class="a" d="M247.116,74.68a1.769,1.769,0,1,0,1.769,1.769A1.769,1.769,0,0,0,247.116,74.68Zm0,2.358a.59.59,0,1,1,.59-.59A.59.59,0,0,1,247.116,77.038Z" transform="translate(-245.347 -74.68)"/></g><g transform="translate(12.169 9.208)"><g transform="translate(0 0)"><rect class="a" width="0.987" height="0.987"/></g></g><g transform="translate(12.169 12.169)"><g transform="translate(0 0)"><rect class="a" width="0.987" height="0.987"/></g></g><g transform="translate(9.434 22.994)"><rect class="a" width="1.179" height="1.179"/></g></svg>