<svg xmlns="http://www.w3.org/2000/svg" width="27.637" height="27.637" viewBox="0 0 27.637 27.637"><defs><style>.a{fill:#f6f7f9;}</style></defs><g transform="translate(0 0)"><path class="a" d="M801.191,655.747h-.446v-1.31A.441.441,0,0,0,800.3,654H775.337a.441.441,0,0,0-.446.437v1.31h-.446a.441.441,0,0,0-.446.437v2.62a.441.441,0,0,0,.446.437h26.745a.441.441,0,0,0,.446-.437v-2.62a.441.441,0,0,0-.446-.437Zm-25.408-.873h24.071v.873H775.783Zm24.962,3.494H774.892V656.62h25.854Zm0,0" transform="translate(-774 -631.603)"/><path class="a" d="M801.191,354H774.446a.447.447,0,0,0-.446.448v1.794a.447.447,0,0,0,.446.448H784.7v1.345a.447.447,0,0,0,.446.448h.446v4.932a.447.447,0,0,0,.446.448h.446v1.345a.447.447,0,0,0,.446.448h.446v1.068l-3.12,1.569-3.367-1.693a.442.442,0,0,0-.4,0l-3.566,1.794a.448.448,0,0,0-.246.4v4.484a.45.45,0,0,0,.246.4l3.566,1.794a.447.447,0,0,0,.4,0l3.367-1.694,3.367,1.693a.44.44,0,0,0,.2.048.447.447,0,0,0,.2-.047l3.367-1.694,3.367,1.693a.44.44,0,0,0,.2.048.447.447,0,0,0,.2-.047l3.566-1.794a.449.449,0,0,0,.246-.4V368.8a.449.449,0,0,0-.246-.4L795.15,366.6a.444.444,0,0,0-.4,0l-3.366,1.694-3.12-1.569v-1.068h.446a.447.447,0,0,0,.446-.448v-1.345h.446a.447.447,0,0,0,.446-.448v-4.932h.446a.447.447,0,0,0,.446-.448V356.69h10.253a.447.447,0,0,0,.446-.448v-1.794a.447.447,0,0,0-.446-.448Zm-20.059,16.868,2.674-1.345V373l-2.674,1.345Zm-.446-3.363,2.57,1.292-2.57,1.292-2.57-1.292Zm-3.12,2.018,2.674,1.345v3.482L777.566,373Zm7.132,0,2.675,1.345v3.482L784.7,373Zm3.566,1.345,2.674-1.345V373l-2.674,1.345Zm3.566-1.345,2.675,1.345v3.482L791.83,373Zm3.566,4.827v-3.482l2.674-1.345V373Zm-.446-6.845,2.569,1.292-2.569,1.292-2.57-1.292Zm-7.132,2.585-2.569-1.292,2.569-1.292,2.57,1.292Zm.446-5.328h-.891v-.9h.891Zm-1.783-1.794v-.9h2.674v.9Zm2.674-1.794h-2.674v-2.69h2.674Zm.892-3.587H785.59v-.9h4.458Zm10.7-1.794H774.892v-.9h25.854Zm0,0" transform="translate(-774 -354)"/><path class="a" d="M1009.719,470.646l.873-.873.617.617-.873.873Zm0,0" transform="translate(-992.186 -461.162)"/><rect class="a" width="0.987" height="0.987" transform="translate(18.389 10.277)"/><path class="a" d="M889.73,470.379l.618-.617.873.873-.617.617Zm0,0" transform="translate(-881.122 -461.152)"/><rect class="a" width="0.987" height="0.987" transform="translate(8.306 10.277)"/></g></svg>