<svg xmlns="http://www.w3.org/2000/svg" width="27.637" height="27.637" viewBox="0 0 27.637 27.637"><defs><style>.a{fill:#fff;}</style></defs><g transform="translate(0 0)"><path class="a" d="M24.264,36.517V31.481a1.58,1.58,0,0,0-.674-1.333,1.222,1.222,0,0,0-1.363-.015A29.152,29.152,0,0,1,8.959,34.644c-.036,0-4.284.024-4.284.024A2.2,2.2,0,0,0,2.6,36.752H1.731A1.859,1.859,0,0,0,0,38.712V43.02A1.859,1.859,0,0,0,1.731,44.98H2.6a2.358,2.358,0,0,0,1.23,1.883l3.1,9.7a1.378,1.378,0,0,0,1.273,1.009h3.114a1.316,1.316,0,0,0,1.109-.654,1.707,1.707,0,0,0,.164-1.4L9.93,47.185a29.2,29.2,0,0,1,12.3,4.412,1.222,1.222,0,0,0,1.363-.015,1.58,1.58,0,0,0,.674-1.334V45.213a4.489,4.489,0,0,0,0-8.7ZM2.588,43.468H1.731a.425.425,0,0,1-.4-.449V38.712a.425.425,0,0,1,.4-.448h.857Zm1.78,2.009a.862.862,0,0,1-.445-.776V37.03h0a.806.806,0,0,1,.751-.85H8.309v9.372s-3.666,0-3.682,0A.635.635,0,0,1,4.368,45.477ZM11.34,56.028a.019.019,0,0,1,0,.02c-.006.009-.01.009-.016.009H8.209a.019.019,0,0,1-.018-.013l-2.873-8.98H8.471Zm11.588-5.78a.028.028,0,0,1-.014.029.028.028,0,0,1-.036,0A30.393,30.393,0,0,0,9.644,45.634V36.1a30.4,30.4,0,0,0,13.234-4.644.032.032,0,0,1,.05.029Zm1.335-6.566V38.047a2.967,2.967,0,0,1,0,5.635Z" transform="translate(0 -29.933)"/></g></svg>