<svg xmlns="http://www.w3.org/2000/svg" width="26.586" height="26.586" viewBox="0 0 26.586 26.586"><defs><style>.a{fill:#f6f7f9;}</style></defs><g transform="translate(0 0)"><path class="a" d="M-293.855,12.854h-1.359L-296.07.417A.443.443,0,0,0-296.514,0h-2.659a.443.443,0,0,0-.443.413l-.856,12.437h-.916V10.2a.443.443,0,0,0-.443-.443.442.442,0,0,0-.277.1l-3.711,2.969V10.2a.443.443,0,0,0-.443-.443.442.442,0,0,0-.277.1l-3.711,2.969V10.2a.443.443,0,0,0-.443-.443.441.441,0,0,0-.277.1l-3.711,2.969V10.2a.443.443,0,0,0-.443-.443.443.443,0,0,0-.228.063l-4.431,2.659a.443.443,0,0,0-.215.38V23.489a.443.443,0,0,0,.443.443h25.7a.443.443,0,0,0,.443-.443V13.3A.443.443,0,0,0-293.855,12.854ZM-298.758.89h1.831l.825,11.964h-3.482Zm-6.174,22.155V17.728h2.659v5.317Zm10.635,0h-7.09v-5.76a.443.443,0,0,0-.443-.443h-3.545a.443.443,0,0,0-.443.443v5.76h-13.293V13.1l3.545-2.127V13.74a.443.443,0,0,0,.443.443.444.444,0,0,0,.277-.1l3.711-2.969V13.74a.443.443,0,0,0,.443.443.444.444,0,0,0,.277-.1l3.711-2.969V13.74a.443.443,0,0,0,.443.443.444.444,0,0,0,.277-.1l3.711-2.969V13.3a.443.443,0,0,0,.443.443h7.533v9.305Z" transform="translate(319.998 2.655)"/><path class="a" d="M32.4-63.115a1.645,1.645,0,0,1,.431.333,1.55,1.55,0,0,0,.99.553,1.617,1.617,0,0,0,1.044-.576,2.077,2.077,0,0,1,.374-.31c.091,0,.33.228.459.348a1.484,1.484,0,0,0,.959.538,1.73,1.73,0,0,0,1.113-.611c.109-.1.273-.257.3-.276.238,0,.292.079.439.29a1.12,1.12,0,0,0,.979.6.443.443,0,0,0,.443-.443.443.443,0,0,0-.443-.443c-.089,0-.106-.006-.25-.214A1.309,1.309,0,0,0,38.075-64a1.423,1.423,0,0,0-.912.516c-.147.139-.394.37-.487.373a1.8,1.8,0,0,1-.373-.3A1.645,1.645,0,0,0,35.24-64a1.536,1.536,0,0,0-.98.548,1.84,1.84,0,0,1-.426.339,1.724,1.724,0,0,1-.4-.315A1.607,1.607,0,0,0,32.4-64a.443.443,0,0,0-.445.442A.443.443,0,0,0,32.4-63.115Z" transform="translate(-17.338 64.001)"/><path class="a" d="M-253.782,426.668h-1.773a.443.443,0,0,0-.443.443v2.659a.443.443,0,0,0,.443.443h1.773a.443.443,0,0,0,.443-.443v-2.659A.443.443,0,0,0-253.782,426.668Zm-.443,2.659h-.886v-1.772h.886Z" transform="translate(258.657 -406.285)"/><path class="a" d="M-168.45,426.668h-1.772a.443.443,0,0,0-.443.443v2.659a.443.443,0,0,0,.443.443h1.772a.443.443,0,0,0,.443-.443v-2.659A.443.443,0,0,0-168.45,426.668Zm-.443,2.659h-.886v-1.772h.886Z" transform="translate(176.869 -406.285)"/><path class="a" d="M-83.118,426.668h-1.772a.443.443,0,0,0-.443.443v2.659a.443.443,0,0,0,.443.443h1.772a.443.443,0,0,0,.443-.443v-2.659A.443.443,0,0,0-83.118,426.668Zm-.443,2.659h-.886v-1.772h.886Z" transform="translate(95.082 -406.285)"/></g></svg>