<svg xmlns="http://www.w3.org/2000/svg" width="27.637" height="27.637" viewBox="0 0 27.637 27.637"><defs><style>.a{fill:#fff;}</style></defs><path class="a" d="M390.561,332.982a.713.713,0,1,0,.5.873A.712.712,0,0,0,390.561,332.982Zm0,0" transform="translate(-368.905 -313.76)"/><path class="a" d="M103.242,334.358a.713.713,0,1,0-.873-.5A.712.712,0,0,0,103.242,334.358Zm0,0" transform="translate(-96.892 -313.76)"/><path class="a" d="M27.018,18.679a15.12,15.12,0,0,0,.605-4.134A14.791,14.791,0,0,0,23.507,4.254,13.453,13.453,0,0,0,13.818,0C6.378,0,.012,6.495.012,14.545A15.119,15.119,0,0,0,.617,18.68,1.834,1.834,0,0,0,.054,20.5l1.4,5.619a1.609,1.609,0,0,0,1.981,1.235l1.652-.478a1.564,1.564,0,0,0,1.752.7l2.084-.6a1.765,1.765,0,0,0,1.144-2.137L8.11,16.971a1.611,1.611,0,0,0-1.982-1.234l-2.083.6a1.566,1.566,0,0,0-.584.316,11.029,11.029,0,0,1-.2-1.609,1.687,1.687,0,0,0,1.109-1.468,9.83,9.83,0,0,1,9.448-8.923,9.83,9.83,0,0,1,9.448,8.923,1.686,1.686,0,0,0,1.109,1.468,11.03,11.03,0,0,1-.2,1.609,1.568,1.568,0,0,0-.584-.316l-2.083-.6a1.611,1.611,0,0,0-1.982,1.234l-1.954,7.868a1.765,1.765,0,0,0,1.144,2.137l2.084.6a1.564,1.564,0,0,0,1.752-.7l1.653.478a1.609,1.609,0,0,0,1.981-1.235l1.4-5.62a1.836,1.836,0,0,0-.563-1.824ZM4.324,17.463l2.083-.6a.537.537,0,0,1,.661.411l1.954,7.868a.589.589,0,0,1-.381.712L8.12,26l-.977-3.934a.536.536,0,0,0-.66-.411.588.588,0,0,0-.381.713L7.078,26.3l-.521.151a.538.538,0,0,1-.661-.412h0L3.942,18.175a.588.588,0,0,1,.382-.712Zm.391,8.319-1.562.452a.536.536,0,0,1-.661-.412L1.1,20.2a.594.594,0,0,1,.347-.7l.034-.011,1.54-.446c.157.424-.13-.547,1.7,6.737ZM1.1,15.127h1.08a12.686,12.686,0,0,0,.474,2.816l-1.037.3A14.218,14.218,0,0,1,1.1,15.127ZM24.34,13.465A10.89,10.89,0,0,0,13.818,3.491,10.89,10.89,0,0,0,3.3,13.465a.543.543,0,0,1-.529.5H1.1c.3-7,6-12.8,12.714-12.8s12.413,5.8,12.714,12.8H24.868a.543.543,0,0,1-.529-.5Zm2.191,1.662a14.229,14.229,0,0,1-.517,3.117l-1.037-.3a12.692,12.692,0,0,0,.474-2.817ZM21.739,26.042h0a.538.538,0,0,1-.66.412l-.521-.151.977-3.934a.588.588,0,0,0-.381-.713.537.537,0,0,0-.66.411L19.516,26,19,25.851a.588.588,0,0,1-.381-.712l1.954-7.868a.549.549,0,0,1,.521-.431.5.5,0,0,1,.14.02l2.083.6a.588.588,0,0,1,.382.712Zm4.8-5.84-1.4,5.62a.536.536,0,0,1-.66.411l-1.563-.452c1.828-7.287,1.54-6.313,1.7-6.737,1.641.475,1.545.446,1.579.459a.593.593,0,0,1,.343.7Zm0,0" transform="translate(0.001 -0.001)"/></svg>