<svg xmlns="http://www.w3.org/2000/svg" width="28.118" height="27.075" viewBox="0 0 28.118 27.075"><defs><style>.a{fill:#f6f7f9;}</style></defs><g transform="translate(0 0)"><path class="a" d="M154.155,324.343H159.3a.549.549,0,0,0,0-1.1h-5.146a.549.549,0,0,0,0,1.1Z" transform="translate(-145.17 -306.015)"/><path class="a" d="M109.484,324.343a.549.549,0,1,0,0-1.1h0a.549.549,0,1,0,0,1.1Z" transform="translate(-102.951 -306.015)"/><path class="a" d="M65.179,324.343a.549.549,0,1,0,0-1.1h0a.549.549,0,1,0,0,1.1Z" transform="translate(-61.079 -306.015)"/><path class="a" d="M159.3,429.046h-5.146a.549.549,0,1,0,0,1.1H159.3a.549.549,0,1,0,0-1.1Z" transform="translate(-145.171 -406.005)"/><path class="a" d="M109.481,429.046a.549.549,0,1,0,.552.549.548.548,0,0,0-.552-.549Z" transform="translate(-102.951 -406.005)"/><path class="a" d="M65.176,429.046a.549.549,0,1,0,.552.549.548.548,0,0,0-.552-.549Z" transform="translate(-61.079 -406.005)"/><path class="a" d="M24.629,12.99A11.911,11.911,0,0,0,4.293,21.416a11.992,11.992,0,0,0,.251,2.439h-4A.549.549,0,0,0,0,24.4V36.026a.549.549,0,0,0,.549.549h9.669a.549.549,0,0,0,0-1.1H1.1V30.764H17.132v4.712h-1.98a.549.549,0,0,0,0,1.1h2.53a.549.549,0,0,0,.549-.549V33.16a11.918,11.918,0,0,0,6.4-20.17Zm2.376,7.877h-4.37a20.1,20.1,0,0,0-.872-5.519,14.5,14.5,0,0,0,2.618-1A10.773,10.773,0,0,1,27.006,20.867Zm-3.425-7.355a13.922,13.922,0,0,1-2.188.793c-.164-.412-.342-.806-.536-1.179A9.136,9.136,0,0,0,19.469,11.1,10.821,10.821,0,0,1,23.581,13.512Zm-13.8,8.453c.015.637.057,1.269.126,1.89H5.669a10.9,10.9,0,0,1-.262-1.89Zm1.231,1.89c-.072-.62-.116-1.252-.132-1.89h4.781v1.89Zm-.133-2.989a18.9,18.9,0,0,1,.842-5.255,21.119,21.119,0,0,0,3.94.455v4.8Zm1.225-6.3c.134-.324.277-.636.431-.933.875-1.69,1.969-2.724,3.126-2.973v4.31a20.193,20.193,0,0,1-3.558-.4Zm4.656,1.5a21.135,21.135,0,0,0,3.942-.455,18.9,18.9,0,0,1,.841,5.254H16.754v-4.8Zm3.128-2.436c.154.3.3.609.431.934a20.211,20.211,0,0,1-3.559.4v-4.31C17.912,10.908,19.006,11.941,19.882,13.631ZM12.941,11.1a9.139,9.139,0,0,0-1.387,2.023c-.193.373-.372.767-.535,1.179a13.913,13.913,0,0,1-2.188-.793A10.821,10.821,0,0,1,12.941,11.1ZM8.029,14.344a14.5,14.5,0,0,0,2.619,1,20.1,20.1,0,0,0-.873,5.519H5.406a10.774,10.774,0,0,1,2.624-6.523Zm9.1,15.322H1.1V24.954H17.132Zm.549-5.81h-.927v-1.89h4.783a18.8,18.8,0,0,1-.845,5.259,20.406,20.406,0,0,0-2.462-.373V24.4a.549.549,0,0,0-.549-.549ZM18.23,31.4V27.954a19.373,19.373,0,0,1,2.083.312A8.228,8.228,0,0,1,18.23,31.4Zm1.238.334a10.1,10.1,0,0,0,1.879-3.093c.015-.037.029-.076.044-.114a13.935,13.935,0,0,1,2.19.8,10.77,10.77,0,0,1-4.113,2.412Zm4.913-3.244a14.6,14.6,0,0,0-2.62-1,19.984,19.984,0,0,0,.875-5.523h4.37A10.811,10.811,0,0,1,24.381,28.488Z" transform="translate(0 -9.5)"/><path class="a" d="M221.534,482.5a.549.549,0,1,0,0,1.1h0a.549.549,0,1,0,0-1.1Z" transform="translate(-208.849 -456.524)"/></g></svg>