<?xml version="1.0" encoding="utf-8"?>
<!-- Generator: Adobe Illustrator 22.1.0, SVG Export Plug-In . SVG Version: 6.00 Build 0)  -->
<svg version="1.1" id="Layer_1" xmlns="http://www.w3.org/2000/svg" xmlns:xlink="http://www.w3.org/1999/xlink" x="0px" y="0px"
	 viewBox="0 0 132 40" style="enable-background:new 0 0 132 40;" xml:space="preserve">
<style type="text/css">
	.st0{fill:#FFFFFF;}
	.st1{fill:#009FE3;}
</style>
<g>
	<path class="st0" d="M5.6,3H3.5v4H1.7v1.7h1.8v8.5c0,2.6,2.1,3.2,3.8,3.2C9,20.4,9.7,20,9.7,20v-1.7c-0.6,0.3-1.3,0.5-2,0.5
		c-2.4,0-2.1-2-2.1-2v-8h4.2V7H5.6V3z"/>
	<path class="st0" d="M83.5,17.2c0,2.6,2.1,3.2,3.8,3.2c1.7,0,2.4-0.5,2.4-0.5v-1.7c-0.6,0.3-1.3,0.5-2,0.5c-2.4,0-2.1-2-2.1-2v-8
		h4.2V7h-4.2V3h-2.1v4h-1.9v1.7h1.8L83.5,17.2L83.5,17.2z"/>
	<path class="st0" d="M13.9,10.4V7h-2.1v13.3h2.1v-6.2C14.6,8.6,19.2,9,19.2,9V6.8C16.9,6.8,14.8,8.3,13.9,10.4z"/>
	<path class="st0" d="M31,20.4v-9c0,0,0.1-4.4-5.4-4.4c0,0-3-0.2-5.2,1l0.7,1.6c0,0,1.3-1,4.1-1s3.9,1.8,3.7,3.9
		C27.6,12.2,26.3,12,25,12c-2.1,0-5.7,0.6-5.7,4.3s4,4.1,4.9,4.1s3.3-0.2,4.8-2.1v2h2V20.4z M29,16c0,0-0.6,2.9-4.2,2.9
		c-3.7,0-3.4-3-3.4-3s0.1-2.3,4-2.3c2.7,0.1,3.6,0.6,3.6,0.6V16z"/>
	<path class="st0" d="M61,20.5c0.9,0,3.3-0.2,4.8-2.1v2h2v-9c0,0,0.1-4.4-5.4-4.4c0,0-3-0.2-5.2,1l0.7,1.6c0,0,1.3-1,4.1-1
		c2.8,0,3.9,1.8,3.7,3.9c-1.3-0.3-2.6-0.5-3.9-0.5c-2.1,0-5.7,0.6-5.7,4.3C56.1,20.1,60.2,20.5,61,20.5z M58.2,15.9
		c0,0,0.1-2.3,4-2.3c2.7,0.1,3.6,0.6,3.6,0.6v1.9c0,0-0.6,2.9-4.2,2.9S58.2,15.9,58.2,15.9z"/>
	<path class="st0" d="M34.4,12.5c0.4-2.9,1.8-3.9,4.5-3.9s3,3.4,3,3.4v8.2h2V11c0-1.3-1.3-4.1-4.9-4.1c-3.6,0-4.6,2.5-4.6,2.5V7.1
		h-2v13.1h2V12.5z"/>
	<path class="st0" d="M111.6,12.5c0.4-2.9,1.8-3.9,4.5-3.9s3,3.4,3,3.4v8.2h2V11c0-1.3-1.3-4.1-4.9-4.1s-4.6,2.5-4.6,2.5V7.1h-2
		v13.1h2V12.5z"/>
	<path class="st0" d="M50.3,12.5c-1-0.2-2.8-1-2.8-2s0.5-1.9,2.6-2.1c2.1-0.2,3.8,1.3,3.8,1.3l0.9-1.5c-1.4-0.9-3.1-1.4-4.7-1.4
		c-1.4,0-4.5,0.5-4.5,3.7s3.3,3.6,5.6,4.2s2,1.9,2,1.9s0.3,2.1-2.5,2.1c-1.7,0-3.4-0.6-4.7-1.8l-1.1,1.5c1.1,1,3.4,1.9,5.5,1.9
		s4.7-1,4.7-4S51.3,12.7,50.3,12.5z"/>
	<path class="st0" d="M75.5,20.6c2.1,0,4.1-0.9,5.4-2.6l-1.3-1.1c-1.1,1.6-3.7,2-3.9,2c-0.2,0-4.9-0.4-4.9-4.7s2.7-5.6,4.8-5.6
		c2.1,0,3.8,2,3.8,2l1.3-1.4c0,0-2.1-2.3-4.9-2.3s-7.1,1.5-7.1,6.3C68.8,17.9,71.8,20.6,75.5,20.6z"/>
	<rect x="91.1" y="7.1" class="st0" width="2.1" height="13.3"/>
	<rect x="91.1" y="2" class="st0" width="2.3" height="2.3"/>
	<path class="st0" d="M101.7,20.5c3.8,0,6.8-3.1,6.8-6.8c0-3.8-3.1-6.8-6.8-6.8l0,0c-3.8,0-6.8,3.1-6.8,6.8
		C94.9,17.4,98,20.5,101.7,20.5z M101.7,8.5c2.7,0,4.8,2.3,4.8,5.2s-2.2,5.2-4.8,5.2c-2.7,0-4.8-2.3-4.8-5.2
		C96.9,10.8,99,8.5,101.7,8.5z"/>
	<path class="st0" d="M41,27.7c0-4.8-4.9-5.1-4.9-5.1h-6.4v14.2h3.2v-4.2h2.9C35.8,32.6,41,32.5,41,27.7z M37.8,27.8
		c0,2.4-2.7,2.1-2.7,2.1h-2.3v-4.4h2.7c1.2-0.1,2.2,0.9,2.3,2.1C37.8,27.6,37.8,27.7,37.8,27.8z"/>
	<path class="st0" d="M66.3,27.6c0-3.4-2.3-5-4.8-5h-7.2v14.2h3.2v-4.6H60l3,4.6h3.7l-3.5-5.1C65.1,31.3,66.3,29.6,66.3,27.6z
		 M60,29.8h-2.5v-4.4h3c0,0,2.5-0.1,2.5,2.3S60,29.8,60,29.8z"/>
	<path class="st0" d="M117.2,27.6c0-3.4-2.3-5-4.8-5h-7.2v14.2h3.2v-4.6h2.5l3,4.6h3.7l-3.5-5.1C116,31.3,117.2,29.6,117.2,27.6z
		 M110.9,29.8h-2.5v-4.4h3c0,0,2.5-0.1,2.5,2.3S110.9,29.8,110.9,29.8z"/>
	<path class="st0" d="M44.6,22.6l-6,14.2h3.2l1.4-3.3h6l1.3,3.3h3.2l-6-14.2C47.7,22.6,44.6,22.6,44.6,22.6z M44.3,30.9l1.9-4.5
		l1.9,4.5H44.3z"/>
	<polygon class="st0" points="67.1,25.5 71.3,25.5 71.3,36.8 74.5,36.8 74.5,25.5 78.8,25.5 78.8,22.6 67.1,22.6 	"/>
	<polygon class="st0" points="93.6,36.8 104.6,36.8 104.6,34 96.9,34 96.9,31.1 103.7,31.1 103.7,28.2 96.9,28.2 96.9,25.5 
		104.6,25.5 104.6,22.6 93.6,22.6 	"/>
	<polygon class="st0" points="89.3,31.4 82.7,22.6 79.7,22.6 79.7,36.8 82.8,36.8 82.8,28 89.6,36.8 92.4,36.8 92.4,22.6 89.3,22.6 
			"/>
	<path class="st0" d="M123.8,28.2c-2.5-0.3-2.6-1.5-2.6-1.5s-0.1-1.5,1.9-1.5s3.7,1.4,3.7,1.4l1.6-2.4c-1.6-1.5-4-1.8-5.2-1.8
		s-5.1,0.5-5.1,3.9s2,4,4.8,4.7c2.8,0.7,2.8,1.4,2.8,1.4s0.6,1.8-1.9,1.8s-4.3-1.8-4.3-1.8l-1.9,2.3c1.6,1.5,3.8,2.4,6,2.4
		c4.5-0.2,5-2.1,5.3-4.5C129.1,30.3,126.3,28.5,123.8,28.2z"/>
	<circle id="Ellipse_2" class="st1" cx="125.9" cy="17.4" r="2.9"/>
</g>
</svg>
